<svg xmlns="http://www.w3.org/2000/svg" viewBox="0 0 300 340" role="img" aria-label="Escudo FLACSO">
  <title>Escudo FLACSO</title>
  <defs>
    <linearGradient id="shieldGrad" x1="0" y1="0" x2="1" y2="1">
      <stop offset="0%" stop-color="#ffffff" stop-opacity="0.55" />
      <stop offset="100%" stop-color="#ffffff" stop-opacity="0.15" />
    </linearGradient>
  </defs>
  <!-- Escudo -->
  <path fill="url(#shieldGrad)" d="M150 14C78 14 38 42 38 110v95c0 68 40 110 112 120 72-10 112-52 112-120v-95C262 42 222 14 150 14z"/>
  <!-- Continente estilizado -->
  <path fill="#FFFFFF" d="M164 74c-14 6-25 18-30 35-5 17 4 26-2 41-6 15-1 33 9 44 10 11 10 21 6 34-4 13 2 24 10 34 12 14 32 22 47 13 9-6 11-18 5-29-6-11-3-18 1-28 7-18 6-34-6-48-12-14-17-26-18-41-1-15-8-25-22-30z"/>
</svg>
